# xmcd
#
# Track frame offsets:
#	182
#	16940
#	41352
#	59802
#	75957
#	96195
#	109855
#	134280
#	149550
#	166530
#
# Disc length: 2512 seconds
#
# Revision: 2
# Processed by: cddbd v1.5.2PL0 Copyright (c) Steve Scherf et al.
# Submitted via: audiograbber 1.83.01
#
DISCID=7b09ce0a
DTITLE=Dutch Mason - I'm Back!
DYEAR=1991
DGENRE=Blues
TTITLE0=I'm Back
TTITLE1=Nine Below Zero
TTITLE2=I Ain't Drunk
TTITLE3=That's Alright Mama
TTITLE4=Trouble and Me
TTITLE5=Don't You Lie To Me
TTITLE6=Moon Is Full
TTITLE7=Ain't Doin' Too Bad
TTITLE8=I'm Just Your Fool
TTITLE9=Who Do You Love?
EXTD=
EXTT0=B. Richardson - Tony D.\n
EXTT1=Rice Miller\n
EXTT2=Joe Liggins\n
EXTT3=Arthur Crudup\n
EXTT4=Melwood Cutlery\n
EXTT5=Albert King\n
EXTT6=Albert Collins\n
EXTT7=Deadrick Malone\n
EXTT8=Walter Jacobs\n
EXTT9=Willie Dixon\n
PLAYORDER=
